<svg width="24" height="22.154" viewBox="0 0 24 22.154" fill="none" xmlns="http://www.w3.org/2000/svg"><path d="M22.494 9.664c.873 0 1.237-1.122.528-1.639L12.231.174a.899.899 0 0 0-1.062 0L.375 8.024c-.709.514-.344 1.639.532 1.639h1.749v10.569H.62a.227.227 0 0 0-.225.225v1.47c0 .125.102.226.225.226h22.156a.226.226 0 0 0 .226-.226v-1.47a.227.227 0 0 0-.226-.226h-2.034V9.662h1.752ZM11.698 2.166l7.662 5.573H4.037l7.662-5.573ZM4.69 9.663h3.306v10.569H4.689V9.663Zm5.341 0h3.306v10.569h-3.306V9.663Zm8.675 10.569h-3.334V9.663h3.335v10.569Z" fill="#0063F5"/></svg>