<svg width="100" height="100" fill="#262626" viewBox="0 0 3 3" xmlns="http://www.w3.org/2000/svg">
  <path d="M2.56.439A1.5 1.5 0 0 0 1.499 0a1.5 1.5 0 0 0-1.06 2.561A1.5 1.5 0 0 0 1.499 3 1.5 1.5 0 0 0 2.559.439m-.193 1.928a1.23 1.23 0 0 1-.868.359A1.227 1.227 0 0 1 .271 1.499 1.23 1.23 0 0 1 .63.631a1.22 1.22 0 0 1 .868-.359c.678 0 1.227.549 1.227 1.227a1.22 1.22 0 0 1-.359.868"/>
  <path d="m1.692 1.5.482-.482a.136.136 0 0 0-.193-.193l-.482.482-.482-.482a.136.136 0 0 0-.192.193l.482.482-.482.482a.136.136 0 1 0 .193.193l.482-.482.482.482a.136.136 0 1 0 .193-.193z"/>
</svg>
