<svg width="98" height="78" viewBox="0 0 98 78" fill="none" xmlns="http://www.w3.org/2000/svg"><path d="M94.619 21.328h-9.67v-3.81h6.804a3.38 3.38 0 1 0 0-6.761h-6.805v-3.81h9.671a3.38 3.38 0 1 0 0-6.761H81.568a3.38 3.38 0 0 0-3.38 3.38v21.142a3.38 3.38 0 0 0 3.38 3.38h13.051a3.38 3.38 0 1 0 0-6.76Z" fill="#fff"/><path d="M98 24.707a3.38 3.38 0 0 1-3.38 3.382h-3.914a3.38 3.38 0 0 0 0-6.762h3.914a3.379 3.379 0 0 1 3.38 3.38Zm-6.78-10.571a3.38 3.38 0 0 0-3.382-3.38h3.914a3.38 3.38 0 0 1 0 6.761h-3.914a3.382 3.382 0 0 0 3.382-3.38Zm2.865-10.571a3.379 3.379 0 0 0-3.38-3.38h3.915a3.38 3.38 0 0 1 0 6.761h-3.914a3.38 3.38 0 0 0 3.38-3.38Z" fill="#F8F9FA"/><path d="M43.667 0a3.38 3.38 0 0 0-3.38 3.38v21.328a3.38 3.38 0 1 0 6.76 0V3.38A3.38 3.38 0 0 0 43.667 0Z" fill="#fff"/><path d="M47.048 3.38v21.327a3.382 3.382 0 0 1-5.338 2.757 3.374 3.374 0 0 0 1.424-2.757V3.38A3.37 3.37 0 0 0 41.71.625a3.38 3.38 0 0 1 5.338 2.755Z" fill="#F8F9FA"/><path d="M72.346 1.242a3.38 3.38 0 0 0-4.757-.48L59.944 7.01V3.38a3.38 3.38 0 1 0-6.761 0v21.328a3.38 3.38 0 1 0 6.76 0V15.74l.382-.312 6.492 10.998a3.379 3.379 0 0 0 4.63 1.193 3.38 3.38 0 0 0 1.192-4.63l-7.018-11.888 6.246-5.103a3.38 3.38 0 0 0 .479-4.756Z" fill="#fff"/><path d="M72.64 22.989a3.383 3.383 0 0 1-1.193 4.63c-.48.282-1 .434-1.52.462a3.531 3.531 0 0 0-.402-2.586l-7.809-13.378a1.375 1.375 0 0 1 .314-1.763l8.3-7.038a3.385 3.385 0 0 0 1.241-2.77 3.38 3.38 0 0 1 .296 5.452l-6.245 5.103L72.64 22.99Z" fill="#F8F9FA"/><path d="M39.555 21.403V57.74H20.146c-2.076 0-4.115-.554-5.905-1.605l-.897-.526a11.758 11.758 0 0 0-5.952-1.617h-5.42A1.972 1.972 0 0 1 0 52.02V23.375c0-1.09.883-1.972 1.972-1.972h8.844c2.736 0 5.422-.883 7.556-2.599 1.916-1.54 3.62-3.906 3.62-7.45V4.046a4.02 4.02 0 0 1 1.185-2.859 4.033 4.033 0 0 1 2.86-1.185 7.283 7.283 0 0 1 7.283 7.282v14.12h6.235Z" fill="#F69583"/><path d="M33.32 21.402V7.284A7.283 7.283 0 0 0 26.037 0a4.02 4.02 0 0 0-2.335.742 7.282 7.282 0 0 1 4.079 6.541V19.81c0 .908-.468 1.765-1.255 2.218-1.397.803-2.348 2.3-2.316 4.004a4.542 4.542 0 0 0 4.541 4.454h-1.047c-2.547 0-4.692 2.084-4.644 4.63a4.542 4.542 0 0 0 4.542 4.455h-1.623c-2.546 0-4.692 2.084-4.643 4.63a4.542 4.542 0 0 0 4.54 4.454H23.68c-2.546 0-4.692 2.084-4.643 4.63a4.542 4.542 0 0 0 4.54 4.454h11.93V21.403H33.32Zm-22.505 5.876-.228 22.478c0 2.622 1.39 5.05 3.653 6.378l-.895-.527a11.775 11.775 0 0 0-5.953-1.617h-5.42A1.972 1.972 0 0 1 0 52.018V23.374c0-1.09.883-1.972 1.972-1.972h8.843c1.599 0 3.178-.301 4.638-.893v.002a7.257 7.257 0 0 0-4.638 6.767Z" fill="#EA806F"/><path d="M44.64 21.402H33.485c-2.546 0-4.692 2.084-4.643 4.63a4.542 4.542 0 0 0 4.54 4.454h11.26a3.833 3.833 0 0 0 3.833-3.833v-1.418a3.833 3.833 0 0 0-3.833-3.833Z" fill="#FDB0A0"/><path d="M48.474 25.235v1.419a3.835 3.835 0 0 1-3.833 3.833h-7.54a3.834 3.834 0 0 0 3.832-3.833v-1.419a3.833 3.833 0 0 0-3.833-3.833h7.541a3.833 3.833 0 0 1 3.833 3.833Z" fill="#F89F8E"/><path d="M43.49 30.486H32.335c-2.546 0-4.692 2.084-4.643 4.63a4.542 4.542 0 0 0 4.541 4.455h11.259a3.833 3.833 0 0 0 3.833-3.834V34.32a3.833 3.833 0 0 0-3.833-3.833Z" fill="#FDB0A0"/><path d="M47.324 34.32v1.419a3.834 3.834 0 0 1-3.833 3.833H31.809a3.834 3.834 0 0 0 3.833-3.833V34.32a3.833 3.833 0 0 0-3.833-3.833h11.682a3.833 3.833 0 0 1 3.833 3.833Z" fill="#F89F8E"/><path d="M41.766 39.57H30.609c-2.546 0-4.692 2.084-4.643 4.63a4.542 4.542 0 0 0 4.54 4.454h11.26a3.833 3.833 0 0 0 3.833-3.833v-1.418a3.833 3.833 0 0 0-3.833-3.833Z" fill="#FDB0A0"/><path d="M45.6 43.404v1.417a3.833 3.833 0 0 1-3.834 3.833h-9.315a3.833 3.833 0 0 0 3.833-3.833v-1.417a3.833 3.833 0 0 0-3.833-3.833h9.315a3.833 3.833 0 0 1 3.833 3.833Z" fill="#F89F8E"/><path d="M40.424 48.655H28.309c-2.546 0-4.691 2.084-4.643 4.63a4.542 4.542 0 0 0 4.541 4.454h11.259a3.833 3.833 0 0 0 3.833-3.833V51.53a2.875 2.875 0 0 0-2.875-2.875Z" fill="#FDB0A0"/><path d="M43.3 51.53v2.376a3.833 3.833 0 0 1-3.834 3.833h-6.358a3.833 3.833 0 0 0 3.834-3.833v-2.377a2.876 2.876 0 0 0-2.875-2.875h6.358a2.876 2.876 0 0 1 2.874 2.875Z" fill="#F89F8E"/><path d="M33.32 7.588v5.444a5.06 5.06 0 0 1-3.04 1.012h-2.018a1.478 1.478 0 1 1 0-2.958h2.018a2.136 2.136 0 0 0 2.133-2.134c0-.613.375-1.141.907-1.364Z" fill="#C4715C"/><path d="M97.422 59.83 80.567 76.684c-1.24 1.242-3.366.363-3.366-1.394v-6.01H19.235a1.972 1.972 0 0 1-1.972-1.972V49.563c0-1.088.883-1.972 1.972-1.972h57.966v-6.01c0-1.757 2.125-2.636 3.366-1.394L97.422 57.04c.77.771.77 2.02 0 2.79Z" fill="#27E19D"/><path d="M97.422 59.83 80.567 76.683c-1.24 1.242-3.366.363-3.366-1.394v-2.904L89.757 59.83a1.972 1.972 0 0 0 0-2.79L77.201 44.486V41.58c0-1.757 2.125-2.636 3.366-1.394L97.422 57.04c.77.771.77 2.02 0 2.79Zm-32.94-12.24C62.376 52.395 57.58 55.749 52 55.749c-5.58 0-10.378-3.354-12.484-8.157h24.967Z" fill="#1EC186"/><path d="M52 50.38c7.526 0 13.627-6.102 13.627-13.628s-6.101-13.627-13.628-13.627c-7.526 0-13.627 6.101-13.627 13.627 0 7.526 6.101 13.628 13.627 13.628Z" fill="#FCB44D"/><path d="M65.626 36.752c0 7.527-6.1 13.627-13.627 13.627a13.605 13.605 0 0 1-10.731-5.227 11.723 11.723 0 0 0 7.09 2.37c6.508 0 11.786-5.276 11.786-11.787 0-6.508-5.278-11.787-11.787-11.787-.402 0-.8.02-1.192.06a13.598 13.598 0 0 1 4.834-.883c7.526 0 13.627 6.102 13.627 13.627Z" fill="#FB9927"/><path d="M50.064 45.15c-.186 0-.367-.009-.544-.026-2.416-.229-4.196-1.88-4.535-4.207-.505-3.473 1.817-5.386 3.942-6.753-1.134-1.93-1.081-2.836-1.06-3.196.126-2.165 1.794-3.798 3.881-3.798a3.888 3.888 0 0 1 3.884 3.884c0 .967-.392 1.913-1.132 2.736-.4.445-.875.84-1.382 1.205a42.83 42.83 0 0 0 2.156 2.485c.084-.21.166-.425.243-.65a1.479 1.479 0 0 1 2.795.968 16.004 16.004 0 0 1-.814 1.943 77.677 77.677 0 0 0 2.273 2.111 1.479 1.479 0 1 1-1.97 2.207 80.935 80.935 0 0 1-1.96-1.808c-1.813 2.09-3.98 2.899-5.777 2.899Zm.55-8.553c-1.872 1.195-2.954 2.162-2.702 3.894.14.959.845 1.59 1.887 1.689 1.204.114 2.673-.51 3.93-2.031a46.892 46.892 0 0 1-3.115-3.552Zm1.134-6.47c-.57 0-.899.51-.928 1.013 0 .003.007.404.6 1.434.345-.25.647-.503.882-.763.247-.274.372-.53.372-.757a.927.927 0 0 0-.926-.926Z" fill="#EEF4F5"/><path d="M74.833 60.812h-3.28v-.897h2.235a1.479 1.479 0 0 0 0-2.958h-2.235v-.897h3.28a1.479 1.479 0 1 0 0-2.958h-4.759a1.48 1.48 0 0 0-1.479 1.48v7.709c0 .817.662 1.479 1.479 1.479h4.759a1.479 1.479 0 0 0 0-2.958ZM29.845 56.06h2.832a1.479 1.479 0 1 0 0-2.958h-2.832a3.41 3.41 0 0 0-3.406 3.407 3.41 3.41 0 0 0 3.406 3.406h.904a.45.45 0 0 1 0 .897h-2.831a1.479 1.479 0 1 0 0 2.958h2.831a3.41 3.41 0 0 0 3.407-3.407 3.41 3.41 0 0 0-3.407-3.406h-.904a.449.449 0 0 1 0-.897Zm13.182-2.958a1.48 1.48 0 0 0-1.48 1.48v2.375h-1.8v-2.376a1.479 1.479 0 0 0-2.958 0v7.71a1.479 1.479 0 1 0 2.958 0v-2.376h1.8v2.376a1.479 1.479 0 0 0 2.958 0v-7.71a1.48 1.48 0 0 0-1.478-1.479Zm8.349 0a3.863 3.863 0 0 0-3.859 3.859v5.33a1.479 1.479 0 0 0 2.958 0v-1.39h1.8v1.39a1.479 1.479 0 0 0 2.958 0v-5.33a3.862 3.862 0 0 0-3.857-3.858Zm.9 4.841h-1.8v-.982a.902.902 0 0 1 1.8 0v.982Zm12.06 1.783a3.695 3.695 0 0 0 1.437-2.922 3.706 3.706 0 0 0-3.702-3.702h-2.536a1.48 1.48 0 0 0-1.479 1.48v7.709a1.479 1.479 0 1 0 2.958 0v-1.784h.275l1.783 2.616a1.477 1.477 0 0 0 2.054.39c.676-.46.85-1.38.39-2.055l-1.18-1.732Zm-2.265-2.177h-1.057V56.06h1.057a.745.745 0 0 1 0 1.489Z" fill="#0D9E66"/></svg>