<svg width="92" height="94" viewBox="0 0 92 94" fill="none" xmlns="http://www.w3.org/2000/svg"><path d="M78.514 36.562H10.6a5.938 5.938 0 1 1 0-11.875h67.914v11.875Z" fill="#F0F5FA"/><path d="M71.17 24.686h7.344v11.876H71.17V24.687Z" fill="#E4ECF2"/><path d="M14.768 37.94h72.56v12.583h-72.56V37.94Z" fill="#677A8F"/><path d="M79.984 37.94h7.344v12.582h-7.344V37.94Z" fill="#5C6D80"/><path d="M21.257 37.94h16.858v12.582H21.257V37.94Zm23.241 0h7.678v12.582h-7.678V37.94Z" fill="#FFE7B3"/><path d="M10.055 51.898H72.8c5.24 0 9.487 4.245 9.487 9.48 0 5.236-4.247 9.48-9.487 9.48H10.056v-18.96Z" fill="#F0F5FA"/><path d="M72.8 51.898h-7.344c5.24 0 9.486 4.245 9.486 9.48 0 5.236-4.247 9.48-9.486 9.48H72.8c5.239 0 9.486-4.244 9.486-9.48 0-5.235-4.247-9.48-9.486-9.48Z" fill="#E4ECF2"/><path d="M72.8 72.235H5.261a1.377 1.377 0 1 1 0-2.754h67.54c4.47 0 8.108-3.635 8.108-8.103s-3.637-8.103-8.109-8.103H5.261a1.377 1.377 0 1 1 0-2.753h67.54c5.99 0 10.862 4.87 10.862 10.856 0 5.987-4.873 10.857-10.863 10.857Z" fill="#87DDF5"/><path d="M10.055 63.018h54.541a1.377 1.377 0 1 1 0 2.754h-54.54v-2.754Zm0-5.653h34.428a1.377 1.377 0 0 1 0 2.754H10.055v-2.754Z" fill="#C5D7E6"/><path d="M82.324 37.94H10.6c-4.033 0-7.315-3.282-7.315-7.316 0-4.033 3.282-7.314 7.315-7.314h71.724a1.377 1.377 0 1 1 0 2.754H10.6a4.566 4.566 0 0 0-4.56 4.56 4.566 4.566 0 0 0 4.56 4.561h71.724a1.377 1.377 0 1 1 0 2.754Z" fill="#FFDA45"/><path d="M78.515 32.001H26.019a1.377 1.377 0 1 1 0-2.754h52.496v2.754Z" fill="#C5D7E6"/><path d="M24.386 72.235h67.212V94H24.386V72.235Z" fill="#FFDA45"/><path d="M84.254 72.235h7.344V94h-7.344V72.235Z" fill="#FAC800"/><path d="M37.334 86.773h42.803a3.655 3.655 0 0 0 3.655-3.654v-.002a3.655 3.655 0 0 0-3.655-3.655H37.334a3.655 3.655 0 0 0-3.655 3.655v.002a3.655 3.655 0 0 0 3.655 3.654ZM.352 72.256h26.096v21.72H.352v-21.72Z" fill="#B23EFF"/><path d="M6.838 88.15c-.76 0-1.377-.616-1.377-1.377v-7.311a1.377 1.377 0 1 1 2.754 0v7.311c0 .76-.616 1.377-1.377 1.377Zm6.388 0c-.76 0-1.377-.616-1.377-1.377v-7.311a1.377 1.377 0 1 1 2.754 0v7.311c0 .76-.617 1.377-1.377 1.377Zm6.387 0c-.76 0-1.377-.616-1.377-1.377v-7.311a1.377 1.377 0 1 1 2.754 0v7.311c0 .76-.616 1.377-1.377 1.377Z" fill="#fff"/><path d="M49.463 16.4c-.358 0-.715-.138-.985-.414l-2.42-2.475c-2.054-2.055-5.415-2.054-7.48.01a1.118 1.118 0 0 1-.028.027l-2.032 1.925a1.377 1.377 0 0 1-1.894-2l2.02-1.913c3.14-3.125 8.237-3.12 11.372.014l2.431 2.487a1.377 1.377 0 0 1-.984 2.34Z" fill="#677A8F"/><path d="M25.763 24.686c6.437 0 11.655-5.218 11.655-11.654 0-6.437-5.218-11.655-11.655-11.655-6.437 0-11.655 5.218-11.655 11.655 0 6.436 5.218 11.654 11.655 11.654Z" fill="#87DDF5"/><path d="M25.763 1.377c-1.283 0-2.517.21-3.672.594 4.637 1.538 7.983 5.907 7.983 11.06 0 5.154-3.346 9.523-7.983 11.062 1.155.383 2.389.594 3.672.594 6.437 0 11.655-5.219 11.655-11.655 0-6.437-5.218-11.655-11.655-11.655Z" fill="#64D5F5"/><path d="M25.763 26.064c-7.186 0-13.032-5.846-13.032-13.031C12.731 5.847 18.577 0 25.763 0s13.032 5.846 13.032 13.032c0 7.185-5.846 13.031-13.032 13.031Zm0-23.31c-5.667 0-10.278 4.611-10.278 10.279 0 5.667 4.61 10.277 10.278 10.277 5.667 0 10.278-4.61 10.278-10.277 0-5.668-4.61-10.278-10.278-10.278Z" fill="#677A8F"/><path d="M25.763 21.107a1.377 1.377 0 1 1 0-2.754 5.327 5.327 0 0 0 5.32-5.32 1.377 1.377 0 1 1 2.755 0c0 4.451-3.623 8.074-8.075 8.074Z" fill="#fff"/><path d="M58.883 24.686c6.437 0 11.655-5.218 11.655-11.654 0-6.437-5.218-11.655-11.655-11.655-6.437 0-11.655 5.218-11.655 11.655 0 6.436 5.218 11.654 11.655 11.654Z" fill="#87DDF5"/><path d="M58.883 1.377c-1.283 0-2.517.21-3.672.594 4.637 1.538 7.983 5.907 7.983 11.06 0 5.154-3.346 9.523-7.983 11.062 1.155.383 2.389.594 3.672.594 6.437 0 11.655-5.219 11.655-11.655 0-6.437-5.218-11.655-11.655-11.655Z" fill="#64D5F5"/><path d="M58.883 26.064c-7.186 0-13.031-5.846-13.031-13.032S51.697 0 58.883 0c7.186 0 13.032 5.846 13.032 13.032 0 7.185-5.846 13.032-13.032 13.032Zm0-23.31c-5.667 0-10.278 4.61-10.278 10.278 0 5.667 4.611 10.277 10.278 10.277 5.667 0 10.278-4.61 10.278-10.277 0-5.668-4.61-10.278-10.278-10.278Z" fill="#677A8F"/><path d="M58.883 21.107a1.377 1.377 0 1 1 0-2.754 5.327 5.327 0 0 0 5.321-5.32 1.377 1.377 0 1 1 2.754 0c0 4.451-3.622 8.074-8.075 8.074Z" fill="#fff"/></svg>