<svg width="21" height="22.05" viewBox="0 0 21 22.05" fill="none" xmlns="http://www.w3.org/2000/svg"><path d="M19.478 6.131h-3.743a3.423 3.423 0 0 0 0.548 -1.856c0 -1.908 -1.57 -3.461 -3.5 -3.461 -1.05 0 -1.996 0.462 -2.638 1.189A3.513 3.513 0 0 0 7.508 0.814c-1.93 0 -3.501 1.553 -3.501 3.461 0 0.683 0.201 1.32 0.548 1.856H0.812A0.806 0.806 0 0 0 0 6.933v5.016c0 0.11 0.091 0.2 0.203 0.2h1.014v8.627c0 0.444 0.363 0.803 0.812 0.803h16.233a0.806 0.806 0 0 0 0.811 -0.803v-8.626h1.014a0.203 0.203 0 0 0 0.204 -0.201V6.933a0.806 0.806 0 0 0 -0.812 -0.802ZM11.008 4.274c0 -0.968 0.796 -1.756 1.774 -1.756 0.98 0 1.777 0.788 1.777 1.756 0 0.968 -0.797 1.756 -1.776 1.756h-1.774V4.275ZM7.508 2.52c0.979 0 1.774 0.788 1.774 1.756v1.756H7.508c-0.98 0 -1.776 -0.788 -1.776 -1.756 0 -0.968 0.796 -1.756 1.774 -1.756ZM1.725 10.444V7.836H9.282v2.608H1.725Zm1.217 1.705H9.282v7.724H2.94V12.149Zm14.406 7.724h-6.341V12.149h6.341v7.724Zm1.218 -9.429h-7.559V7.836h7.558v2.608Z" fill="#0063F5"/></svg>