<svg width="21" height="20.045" viewBox="0 0 21 20.045" fill="none" xmlns="http://www.w3.org/2000/svg"><path d="M20.78 17.686H1.97V0.955a0.218 0.218 0 0 0 -0.22 -0.215H0.22A0.218 0.218 0 0 0 0 0.955v18.448c0 0.117 0.098 0.215 0.22 0.215h20.561c0.121 0 0.22 -0.096 0.22 -0.215v-1.502a0.218 0.218 0 0 0 -0.22 -0.215ZM4.862 13.549a0.222 0.222 0 0 0 0.309 0l3.782 -3.689 3.489 3.442a0.222 0.222 0 0 0 0.309 0l7.53 -7.381a0.212 0.212 0 0 0 0 -0.303l-1.083 -1.061a0.221 0.221 0 0 0 -0.308 0L12.6 10.72l-3.484 -3.436a0.221 0.221 0 0 0 -0.308 0L3.782 12.18a0.214 0.214 0 0 0 0 0.304l1.08 1.064Z" fill="#0063F5"/></svg>