<svg width="100" height="100" viewBox="0 0 1.875 1.875" xmlns="http://www.w3.org/2000/svg"><path d="m.938 1.688-.044.044a.063.063 0 0 0 .088 0zM.192.942.148.986zM.817.317.773.361zm.121.121L.894.482a.063.063 0 0 0 .088 0zm.12-.12L1.014.274zM.982 1.644.236.898.148.986l.746.746zm.657-.746-.746.746.088.088.746-.746zM.773.361l.12.121.088-.088L.86.274zm.209.121.12-.121-.088-.088-.121.12zm.389-.357a.5.5 0 0 0-.357.148l.088.088A.38.38 0 0 1 1.371.25zm.379.504c0 .101-.04.197-.111.268l.088.088a.5.5 0 0 0 .148-.356zm.125 0a.504.504 0 0 0-.504-.504V.25a.38.38 0 0 1 .379.379zM.504.25c.101 0 .197.04.268.111L.86.273A.5.5 0 0 0 .504.125zM.125.629A.38.38 0 0 1 .504.25V.125A.504.504 0 0 0 0 .629zm.111.268A.38.38 0 0 1 .125.629H0c0 .134.053.262.148.357z" fill="#6C757D" /></svg>