<svg width="24" height="24" viewBox="0 0 24 24" fill="none" xmlns="http://www.w3.org/2000/svg"><path d="M12.31 5.33h-1.342c-.123 0-.223.1-.223.223v7.683c0 .073.033.14.092.182l4.613 3.368c.1.073.24.053.313-.047l.798-1.089a.22.22 0 0 0-.048-.312l-3.98-2.877V5.552c0-.122-.1-.223-.223-.223Zm6.134 2.099 4.376 1.069a.224.224 0 0 0 .276-.215l.023-4.507a.222.222 0 0 0-.36-.176L18.36 7.035a.224.224 0 0 0 .083.394Zm4.68 8.403-1.582-.545a.223.223 0 0 0-.282.134 9.806 9.806 0 0 1-2.286 3.56 9.852 9.852 0 0 1-6.982 2.895 9.852 9.852 0 0 1-6.982-2.894 9.897 9.897 0 0 1-2.118-3.14A9.863 9.863 0 0 1 2.122 12c0-1.334.26-2.629.775-3.846a9.806 9.806 0 0 1 2.119-3.14 9.851 9.851 0 0 1 6.979-2.893 9.851 9.851 0 0 1 7.78 3.795l1.67-1.306A11.967 11.967 0 0 0 11.988 0 11.978 11.978 0 0 0 .002 12.123C.068 18.695 5.41 24 11.995 24c5.177 0 9.586-3.282 11.266-7.878a.228.228 0 0 0-.137-.29Z" fill="#0063F5"/></svg>