<svg width="75" height="75" viewBox="0 0 75 75" fill="none" xmlns="http://www.w3.org/2000/svg"><path d="M70.568 20.99c-4.427 5.877-11.828 7.73-16.536 4.128-4.707-3.602-5.372-10.138-1.29-16.348C57.238 1.932 66.715 4.409 72.266.28a1.264 1.264 0 0 1 2.053.897c.295 4.697.32 14.397-3.75 19.813ZM25.683 31.256c4.427 5.878 11.828 7.731 16.536 4.129 4.709-3.602 5.37-10.138 1.283-16.348-4.489-6.838-13.966-4.361-19.517-8.491a1.263 1.263 0 0 0-2.053.898c-.294 4.697-.32 14.397 3.751 19.812Z" fill="#00E979"/><path d="M52.617 46.206a1.284 1.284 0 0 1-1.191-.806c-2.459-6.148-5.75-8.352-8.342-9.584-12.423-5.903-13.515-13.51-13.554-13.831a1.284 1.284 0 0 1 2.544-.331c.018.115 1.117 6.615 12.114 11.845a16.984 16.984 0 0 1 6.655 5.488c.145-6.11 2.08-15.895 11.097-25.73a1.284 1.284 0 0 1 1.892 1.735c-13.446 14.66-10.006 29.475-9.97 29.623a1.283 1.283 0 0 1-1.245 1.591Z" fill="#00DC72"/><path d="M25.667 64.173h-5.134a2.566 2.566 0 1 0 0-5.133H2.567a2.567 2.567 0 0 0 0 5.133H7.7a2.567 2.567 0 1 0 0 5.134H5.133a2.566 2.566 0 1 0 0 5.133H23.1a2.567 2.567 0 1 0 0-5.133h2.567a2.567 2.567 0 0 0 0-5.134Z" fill="#FDE05E"/><path d="M25.667 64.174H7.7a2.567 2.567 0 0 0 0 5.133h17.967a2.567 2.567 0 1 0 0-5.133Z" fill="#E3C84C"/><path d="M66.734 64.173H61.6a2.566 2.566 0 1 0 0-5.133h-3.85a2.567 2.567 0 0 0 0-5.134h3.85a2.567 2.567 0 1 0 0-5.133 2.566 2.566 0 1 0 0-5.133H43.633a2.567 2.567 0 0 0 0 5.133 2.567 2.567 0 1 0 0 5.133h-3.85a2.566 2.566 0 1 0 0 5.134h3.85a2.567 2.567 0 1 0 0 5.133h5.134a2.567 2.567 0 1 0 0 5.133H46.2a2.567 2.567 0 0 0 0 5.134h17.967a2.567 2.567 0 0 0 0-5.134h2.567a2.567 2.567 0 0 0 0-5.133Z" fill="#FDE05E"/><path d="M61.6 59.04H43.634a2.567 2.567 0 1 0 0 5.133H61.6a2.567 2.567 0 1 0 0-5.133Zm0-10.267H43.634a2.567 2.567 0 1 0 0 5.134H61.6a2.567 2.567 0 1 0 0-5.134Zm2.567 20.534H46.2a2.567 2.567 0 1 0 0 5.133h17.967a2.567 2.567 0 1 0 0-5.133Z" fill="#E3C84C"/><path d="M14.117 59.04c6.379 0 11.55-5.17 11.55-11.55 0-6.379-5.171-11.55-11.55-11.55-6.379 0-11.55 5.172-11.55 11.55 0 6.38 5.171 11.55 11.55 11.55Z" fill="#FDE05E"/><path d="M14.117 56.474a8.983 8.983 0 1 0 0-17.967 8.983 8.983 0 0 0 0 17.967Z" fill="#E3C84C"/><path d="M17.967 50.057a3.85 3.85 0 0 0-3.85-3.85 1.283 1.283 0 1 1 1.112-1.925 1.283 1.283 0 0 0 2.222-1.284 3.841 3.841 0 0 0-2.05-1.668v-.257a1.283 1.283 0 1 0-2.567 0v.236a3.841 3.841 0 0 0 1.283 7.464 1.284 1.284 0 1 1-1.113 1.925 1.283 1.283 0 0 0-2.221 1.284 3.84 3.84 0 0 0 2.053 1.668v.257a1.283 1.283 0 1 0 2.567 0v-.236a3.85 3.85 0 0 0 2.564-3.614Z" fill="#FDE05E"/></svg>