<svg xmlns="http://www.w3.org/2000/svg" width="100" height="100" viewBox="0 0 6.5 6.5" xml:space="preserve"><path d="m3.4 5.213-.263-.037q-.131-.019-.263-.075a.16.16 0 0 0-.15.037l-.063.063c-.362.362-.95.4-1.325.075a.957.957 0 0 1-.05-1.4l.95-.95c.125-.125.275-.2.425-.25a1 1 0 0 1 .6.037c.113.05.225.113.325.212.05.05.087.1.125.163.05.087.163.1.225.025l.35-.35c.05-.05.05-.125.013-.188-.05-.075-.113-.138-.175-.2a1.4 1.4 0 0 0-.3-.237 1.6 1.6 0 0 0-.588-.225 1.8 1.8 0 0 0-1.163.175 1.8 1.8 0 0 0-.388.287l-.912.912C.113 3.95.063 5.025.7 5.7a1.71 1.71 0 0 0 2.475.05l.313-.313c.087-.063.025-.212-.087-.225"/><path d="M5.7.725C5.012.088 3.938.137 3.287.8L3 1.075c-.087.087-.025.237.087.25.175.013.35.05.525.1.05.013.113 0 .15-.037l.063-.063c.362-.362.95-.4 1.325-.075a.957.957 0 0 1 .05 1.4l-.95.95c-.125.125-.275.2-.425.25a1 1 0 0 1-.6-.037 1 1 0 0 1-.325-.212.8.8 0 0 1-.125-.163c-.05-.087-.163-.1-.225-.025l-.35.35c-.05.05-.05.125-.013.188.05.075.113.138.175.2.087.087.2.175.3.237.175.113.375.188.575.225.388.075.813.013 1.163-.175.138-.075.275-.175.388-.287l.95-.95c.7-.688.675-1.813-.037-2.475"/></svg>