<svg width="231" height="62" viewBox="0 0 231 62" fill="none" xmlns="http://www.w3.org/2000/svg"><path d="M76.268 43v-4.212l13.86-16.128H76.7V17.8h20.556v4.212L83.396 38.14h13.86V43H76.268Zm48.845.432c-3.696 0-6.78-1.248-9.252-3.744-2.448-2.496-3.672-5.568-3.672-9.216V30.4c0-3.648 1.236-6.732 3.708-9.252 2.472-2.52 5.616-3.78 9.432-3.78 4.032 0 7.344 1.296 9.936 3.888l-3.528 4.068c-2.136-1.896-4.284-2.844-6.444-2.844-2.088 0-3.828.768-5.22 2.304-1.392 1.512-2.088 3.36-2.088 5.544v.072c0 2.208.684 4.08 2.052 5.616 1.392 1.536 3.144 2.304 5.256 2.304 1.344 0 2.508-.24 3.492-.72 1.008-.48 2.052-1.224 3.132-2.232l3.528 3.564c-1.392 1.512-2.892 2.64-4.5 3.384-1.584.744-3.528 1.116-5.832 1.116Zm35.883-3.78c-2.544 2.52-5.736 3.78-9.576 3.78-3.84 0-7.032-1.248-9.576-3.744-2.52-2.52-3.78-5.592-3.78-9.216V30.4c0-3.624 1.272-6.696 3.816-9.216 2.568-2.544 5.772-3.816 9.612-3.816s7.02 1.26 9.54 3.78c2.544 2.496 3.816 5.556 3.816 9.18v.072c0 3.624-1.284 6.708-3.852 9.252Zm-14.976-3.636c1.44 1.536 3.264 2.304 5.472 2.304 2.208 0 4.02-.756 5.436-2.268 1.416-1.512 2.124-3.372 2.124-5.58V30.4c0-2.208-.72-4.08-2.16-5.616-1.44-1.536-3.264-2.304-5.472-2.304-2.208 0-4.02.756-5.436 2.268-1.416 1.512-2.124 3.372-2.124 5.58v.072c0 2.208.72 4.08 2.16 5.616ZM170.018 43V17.8h5.544V43h-5.544Zm11.842 0V17.8h5.112l11.808 15.516V17.8h5.472V43h-4.716l-12.204-16.02V43h-5.472Zm37.405.36c-4.152 0-7.716-1.344-10.692-4.032l3.276-3.924c2.52 2.04 5.028 3.06 7.524 3.06 1.152 0 2.04-.204 2.664-.612.648-.432.972-1.02.972-1.764v-.072c0-.72-.336-1.308-1.008-1.764-.672-.456-2.028-.936-4.068-1.44-1.416-.36-2.58-.708-3.492-1.044a11.519 11.519 0 0 1-2.556-1.404 5.297 5.297 0 0 1-1.764-2.16c-.36-.864-.54-1.896-.54-3.096v-.072c0-2.28.816-4.116 2.448-5.508 1.632-1.392 3.756-2.088 6.372-2.088 3.552 0 6.672 1.068 9.36 3.204l-2.88 4.176c-2.424-1.656-4.608-2.484-6.552-2.484-1.056 0-1.86.204-2.412.612-.552.408-.828.936-.828 1.584v.072c0 .816.336 1.428 1.008 1.836.696.384 2.172.876 4.428 1.476 2.736.744 4.752 1.668 6.048 2.772 1.296 1.104 1.944 2.7 1.944 4.788v.072c0 2.448-.852 4.368-2.556 5.76-1.68 1.368-3.912 2.052-6.696 2.052Z" fill="#343A40"/><g clip-path="url(#a)"><path d="M61.41 33.028v-6.953.58-2.319 1.16-1.74c0-.58-.591-1.159-.591-1.738-1.181-1.16-1.772-2.897-2.953-4.636-.59-1.738-1.77-2.897-2.952-4.635v-.58l-.59-.58s0-.579-.59-.579c0 0 0-.58-.591-.58 0-.579-.59-.579-.59-.579l-.591-.579-.59-.58-.591-.579-.59-.58-.591-.579-.59-.58s-.591 0-.591-.579c0 0-.59 0-.59-.579 0 0-.591 0-.591-.58l.59.58c-.59 0-1.18-.58-1.18-.58s-.591 0-.591-.579c0 0-.59 0-.59-.58 0 0 .59.58 1.18.58l.59.58c-.59 0-.59-.58-1.18-.58 0 0-.59 0-.59-.58 0 0-.591 0-.591-.579h.59c-2.361 0-4.133-.58-6.495-1.159h-1.18C36.018.58 34.246.58 33.066 0h-5.905 4.724-3.542 8.856-1.77c-1.182 0-1.772.58-1.182.58 0 0 .59 0 1.181.579h2.952-4.132c-.591 0 0 0 0 .58h4.132c0 2.897 1.772 3.476 3.544 4.055.59 0 .59.58 1.18.58h-.59c-1.18-1.159-2.362-1.738-3.543-1.738h-1.18 1.18c.59 0 1.181.579 1.772.579 2.362.58 4.133 1.738 5.314 2.318 0 0-.59 0-.59-.58 0 0-.591 0-.591-.58h-1.18s-.591 0-.591-.579c-.59 0-.59 0-.59-.579h-.591l-.59.58h-7.087.59-.59l-1.18-.58h-1.181 1.18l.591.58h4.723c.591 0 .591 0 .591.579h-.59c-.59 0-.59 0 0 0-.59 0-.59 0-.59.58h-1.772c0 .579-.59.579-.59.579h-.591c-1.772-.58-3.543-1.16-4.724-1.16h5.904c-1.77 1.16-3.542 1.16-4.723.58h-4.724l.59-.58c-1.18 0-2.952.58-4.133 1.16h-2.361c.59 0 1.18-.58 1.77-.58 1.182 0 2.363 0 4.134-.58h2.952-1.18.59l.59-.579h1.773-7.676.59c.59 0 2.362 0 4.134-.579V4.056l-5.315 1.738s.59 0 0 0h-.59c-1.771.58-3.543 1.16-5.314 2.318h-.59l.59-.58.59-.579s.59 0 .59-.58l.591-.579h.59c.591 0 1.181-.579 1.772-.579 2.362-1.159 4.724-1.738 7.086-1.738h2.36-5.313c-2.953 0-4.134.58-5.315 1.159 0 0-.59 0-.59.579 0 0-.59 0-.59.58-.591-.58-.591-.58-1.182 0h-1.771c-.59 0-.59 0-1.181.579-.59 0-.59.58-1.181.58-.59 0-.59.579-1.181.579 0 0-.59 0-.59.58 0 0-.591 0-.591.579.59 0 0 .579 0 .579s-.59 0-.59.58h.59c-.59 0-.59.579-1.181.579v1.159l-1.181.58-.59.579-.591.58s0 .579-.59.579c0 0 0 .579-.591.579v2.318c-1.18 1.159-2.362 2.897-2.952 4.056 0 0 0-.58.59-.58l.59-.58v.58c0 .58-.59 1.16-.59 2.318v1.739-3.479c0-2.317.59-3.476 1.181-5.214l.59-.58s0-.579.591-.579v-.58l1.771-1.738.591-.58c.59-1.158 1.771-2.317 2.952-3.476-.59 0-.59.58-1.18.58l-.591.579c-1.772 1.738-2.952 2.897-3.543 4.056v-.58c-1.18 1.739-2.362 3.477-2.952 5.795 0 .58 0 .58-.59 1.159v1.16c-.591 1.738-1.182 2.318-1.182 2.897v9.851-4.057c0-1.738.59-2.897 1.181-4.635.59-1.738.59-3.477 1.772-5.215-2.362 1.159-2.953 2.897-3.543 5.215-.59 3.476-.59 6.374 0 9.85v.58C.59 34.186 0 32.449 0 30.71c0-1.738 0-3.476.59-5.215 1.181-4.056 2.362-8.112 4.134-11.589l-.59.58v1.159c0 .58-.591.58-.591 1.159v.58c-1.181.579-1.181 1.738-1.772 2.317 0 .58 0 .58-.59 1.159 0 .58 0 .58-.59 1.159-1.772 5.794-1.772 11.589 0 16.224v.58c0 .579 0 1.158.59 2.317v2.318c0 .58.59 1.159.59 1.159 0 .58.59.58.59 1.159 0-.58-.59-.58-.59-1.16V41.72c0 .58 0 .58.59 1.16 0 .579 0 .579.591 1.158l.59 1.16-.59 1.158v.58s0 .579.59.579c0 0 0 .58.591.58 0 0 0 .579.59.579 0 0 0 .58.591.58l.59.579c-.59.58 0 1.159.591 1.738.59 1.159 1.771 1.738 2.952 2.897l-.59-.58-1.181-.579c0-.579-.59-1.158-1.181-1.158v.579c1.771 1.159 3.543 2.897 5.314 4.056l.59.58.591.579-.59-.58.59.58.59.58c.591 0 1.182.579 1.772.579l5.314 1.738c2.953.58 6.496.58 8.858.58.59 0 1.18 0 1.771-.58h3.542c2.363-.58 4.725-1.159 7.087-2.318h1.18c.591 0 .591 0 1.181-.58 2.362-1.158 2.953-1.737 4.134-2.317l.59-.58.59-.579h.591l.59-.58.591-.579c.59 0 1.181-.579 1.772-1.158 0 0 .59 0 .59-.58l.59-.58c1.182-1.738 2.362-2.897 2.953-4.635 0 0 0 .58-.59.58 0 0 0 .579-.59.579 0 0 0 .58-.591.58 0 0 0 .579-.59.579l.59-.58.59-.579s0-.58.59-.58c0 0 0-.579.591-.579.59-1.738 1.181-2.897 1.771-3.476v-.58c.59-1.738 1.181-3.477 1.772-5.794 0-.58 0-1.16.59-1.739v-1.738c.59-.58.59-1.159.59-1.159-.59.58-.59.58-.59 1.159ZM36.61 5.215s.59 0 0 0c.59 0 .59 0 0 0Zm13.58 6.374c.59 0 1.181.58 1.181 1.159l.59.58.591.579 3.543 5.215s0-.58-.59-.58l-.59-.58c-.591-1.738-1.772-3.476-2.953-4.635l-.59-.58-1.182-1.158-1.77-1.739 1.771 1.739ZM38.38 9.27c-.59 0-.59 0 0 0ZM9.448 22.598c-.59.58-.59 1.738-1.18 2.897-.591 1.16-.591 2.318-.591 4.056v2.318-4.635c0-2.318.59-4.056 1.771-5.795.59-1.159 1.181-1.738 1.772-2.317l.59-.58-.59.58c-.59.579-1.181 1.738-1.772 2.317v1.16Zm49.01-2.318v1.74-1.74c0 .58 0 0 0 0-.59-1.159-1.772-2.897-2.952-4.635-.59-1.739-1.772-3.477-3.543-4.636-.59-.58-1.181-1.738-2.362-2.317l.59.579c.59 0 .59.58 1.181.58 1.772 1.738 2.953 2.897 3.543 4.635 1.181 1.738 2.362 3.477 3.543 5.794ZM24.209 8.112c.59 0 .59 0 0 0 .59 0 .59 0 0 0h1.181l.59-.58h6.497c1.181 0 1.771 0 2.952.58 0 0 .59.58 1.772 1.159H35.43c1.18.58 1.18.58 1.18 1.159 0 0 0 .58-.59.58h-2.362.59l1.181.579c1.181.58 2.362.58 2.953 1.159 1.18 1.159 2.362 1.738 2.952 2.897 0 0 0 .58.59.58l.591.579c.59.58 1.181 1.159 2.362 1.738.59.58 1.181 1.738 2.362 2.318l.59.58s0 .579.59.579c.591 2.897 1.182 4.635 1.772 6.953v3.477c0 1.159 0 2.317-.59 3.476 0 1.739-.59 4.056-1.772 5.795-1.18 1.738-2.952 3.476-4.723 5.215-2.953 2.317-5.905 3.476-9.448 4.056v-.58c0-.58 0-.58-.59-1.159h-1.771v.58s0 .58-.591.58h-.59s.59 0 .59.579l.59.58v.579H24.21l-.591-.58s0-.58-.59-.58v.58l.59.58.59.579h-.59l-.59-.58s-.591 0-.591-.579c0 0-.59 0-.59-.58l.59.58h-1.771s-.591 0-.591-.58l-.59-.579c0-.58-.59-.58-.59-1.159 0 0 0-.58-.591-.58l-.59-.578v-2.898c0 .58.59 1.739 1.18 2.318 0 0-.59 0-.59-.58-.59 0-.59-.579-1.181-.579l-1.772-1.738-.59-.58-.59-1.158-.591-.58c0-.58-.59-.58-.59-1.159 0 0 0-.58-.591-.58 0-.579-.59-1.158-.59-1.158v-4.057c-1.772-2.317-2.363-5.214-1.772-7.532 0-1.159 0-2.318.59-3.477v-1.158c0-.58 0-.58.59-1.16 0-.579 0-.579.591-1.158 0-.58 0-.58.59-1.16v.58c0 .58-.59 1.16-.59 1.739 0 .58-.59 1.159-.59 1.738 0 .58-.59 1.159-.59 1.738 0 .58 0 1.16-.591 1.739v7.533c0 2.317.59 4.055 1.771 6.373-.59-.58 0 .58.59 1.16 0 .579.591 1.158 1.182 1.158l.59.58.59.579c0 1.159.591 1.738 1.182 2.318-.59 0-1.181-1.16-1.772-1.739.59 1.16 1.772 2.318 2.953 2.898h-.59l-.591-.58-1.181-1.159.59.58v.579c-.59-.58-.59-1.159-1.18-1.738l-2.363-2.318c0-.58 0-.58-.59-1.159V41.14c-.59 0-.59-.58-1.181-.58.59 1.16 1.771 1.74 2.362 2.898 0 0 0 .58.59.58 0 0 0 .579.59.579l.591.58c-1.18-1.16-2.362-2.319-2.952-4.057-.59-1.159-1.181-2.897-1.772-4.635 0-.58-.59-1.16-.59-1.739V31.29c0-1.739 0-2.898.59-4.636 0-2.318.59-3.476 1.181-5.215 1.181-2.897 2.953-5.215 5.315-7.533 0 0 .59-.579 0-.579h.59l.59-.58s.591 0 .591-.579c0 0 .59 0 .59-.58 0 0 .591 0 .591-.579h-.59c-.59 1.739-1.772 2.318-2.362 2.897 0 0-.59 0-.59.58-1.772 1.738-3.544 4.056-4.725 6.374 0-.58.59-.58.59-1.16 0-.578.591-.578.591-1.158v-.58c0 .58-.59 1.16-1.18 1.739.59-.58 1.18-1.738 1.77-2.318l.591-.58.59-.579-.59.58v-.58c.59-.58 1.181-1.738 1.772-2.318l1.18-1.158.591-.58.59-.58h-.59l-.59.58-.59.58h-1.181l-.591.58c.59 1.158.59 1.737 0 1.737l-.59.58-.591.58-.59.579v1.159h-.591l.59-.58v-1.159l.59-.58.591-.579v-.579l.59-.58.591-.579.59-.58.591-.579h1.181l1.181-.58.59-.579h1.181l.591-.58.59-.579h1.181l.59-.579s.591 0 .591-.58h.59c.591 0 .591 0 .591-.579ZM1.181 32.45v-1.16 2.319-1.16.58-.58Zm31.885 28.39h-3.542c-4.134 0-7.677-.58-11.81-2.897h-1.18s-.591 0-.591-.58c1.18.58 2.952 1.16 4.133 1.16h1.181-1.181c1.771.579 2.952 1.158 4.724 1.158h4.133c1.181 1.16 2.953 1.16 4.133 1.16Z" fill="#FF6D00"/></g><defs><clipPath id="a"><path fill="#fff" d="M0 0h62v62H0z"/></clipPath></defs></svg>