<svg xmlns="http://www.w3.org/2000/svg" data-name="Layer 1" width="120" height="117.135" viewBox="0 0 120 117.135"><path d="M76.181 26.343H43.846a2.783 2.783 0 0 0-2.779 2.779v71.864l-.371.113-7.932 2.429a1.484 1.484 0 0 1-1.851-.984L7.318 25.473a1.483 1.483 0 0 1 .984-1.851l12.224-3.743L55.963 9.032l12.224-3.743a1.48 1.48 0 0 1 1.851.982l6.031 19.7Z" fill="#f2f2f2"/><path d="M83.237 25.973 75.968 2.23A3.149 3.149 0 0 0 72.034.14L54.848 5.4 19.413 16.249 2.227 21.511a3.153 3.153 0 0 0-2.09 3.934l24.844 81.144a3.155 3.155 0 0 0 3.013 2.229 3.111 3.111 0 0 0 .921-.139l11.781-3.606.371-.115v-.387l-.371.113-11.89 3.641a2.782 2.782 0 0 1-3.47-1.844L.494 25.335a2.776 2.776 0 0 1 1.844-3.47l17.186-5.262L54.959 5.756 72.145.494a2.808 2.808 0 0 1 .817-.122 2.782 2.782 0 0 1 2.653 1.966l7.236 23.635.115.371h.385Z" fill="#3f3d56"/><path d="M22.731 23.684a1.671 1.671 0 0 1-1.595-1.18l-2.387-7.795a1.667 1.667 0 0 1 1.106-2.083l32.6-9.98a1.669 1.669 0 0 1 2.083 1.106l2.387 7.795a1.669 1.669 0 0 1-1.106 2.083l-32.6 9.98a1.663 1.663 0 0 1-.487.073Z" fill="#0063f5"/><path fill="#0063f5" d="M38.939 4.624a3.706 3.706 0 0 1-3.706 3.706 3.706 3.706 0 0 1-3.705-3.706 3.706 3.706 0 0 1 7.411 0z"/><path fill="#fff" d="M37.58 4.624a2.347 2.347 0 0 1-2.347 2.346 2.347 2.347 0 0 1-2.346-2.346 2.347 2.347 0 0 1 4.693 0z"/><path d="M111.662 107.871H49.034a1.577 1.577 0 0 1-1.575-1.575V31.254a1.577 1.577 0 0 1 1.575-1.575h62.628a1.577 1.577 0 0 1 1.575 1.575v75.042a1.577 1.577 0 0 1-1.575 1.575Z" fill="#e6e6e6"/><path d="M82.849 25.973H43.846a3.154 3.154 0 0 0-3.15 3.15v75.561l.371-.113V29.123a2.783 2.783 0 0 1 2.779-2.779h39.118Zm34.001 0H43.846a3.154 3.154 0 0 0-3.15 3.15v84.862a3.154 3.154 0 0 0 3.15 3.15h73.004a3.154 3.154 0 0 0 3.15-3.15V29.123a3.154 3.154 0 0 0-3.15-3.15Zm2.779 88.012a2.783 2.783 0 0 1-2.779 2.779H43.846a2.783 2.783 0 0 1-2.779-2.779V29.123a2.783 2.783 0 0 1 2.779-2.779h73.004a2.783 2.783 0 0 1 2.779 2.779Z" fill="#3f3d56"/><path d="M97.395 34.125H63.302a1.669 1.669 0 0 1-1.668-1.668v-8.153a1.669 1.669 0 0 1 1.668-1.668h34.093a1.669 1.669 0 0 1 1.668 1.668v8.153a1.669 1.669 0 0 1-1.668 1.668Z" fill="#0063f5"/><path fill="#0063f5" d="M84.054 19.488a3.706 3.706 0 0 1-3.706 3.705 3.706 3.706 0 0 1-3.706-3.705 3.706 3.706 0 0 1 7.412 0z"/><path fill="#fff" d="M82.605 19.488a2.257 2.257 0 0 1-2.257 2.257 2.257 2.257 0 0 1-2.257-2.257 2.257 2.257 0 0 1 4.514 0z"/></svg>