<svg width="100" height="100" viewBox="0 0 4 4" xmlns="http://www.w3.org/2000/svg"><path d="M.706 3.042h.3v.129H.51v-.129l.249-.22q.033-.03.049-.059c.016-.029.016-.039.016-.06a.1.1 0 0 0-.033-.077q-.032-.029-.086-.029-.041 0-.09.018t-.105.052v-.15q.059-.02.117-.03a1 1 0 0 1 .114-.011q.122 0 .19.054t.068.15q0 .056-.029.104t-.121.129l-.146.128zm2.725.257q.069.018.105.062t.036.112q0 .102-.078.154t-.227.052q-.052 0-.106-.009a1 1 0 0 1-.104-.025v-.136q.049.025.098.037t.096.012q.07 0 .107-.024t.037-.07a.08.08 0 0 0-.038-.07q-.038-.024-.112-.024h-.07v-.113h.074q.066 0 .099-.021t.033-.064q0-.039-.032-.061c-.032-.021-.051-.021-.089-.021q-.043 0-.086.01a.4.4 0 0 0-.086.028v-.129q.052-.015.103-.022c.051-.007.068-.007.101-.007q.133 0 .199.044.066.043.066.131 0 .06-.032.098t-.093.053M1.841 1.8h.155v-.441l-.16.033v-.12l.159-.033h.167V1.8h.155v.122h-.476zm2.027 2.069V2.746H2.745V.998H1.373v1.248H.125v1.623z"/></svg>