<svg width="21" height="22.05" viewBox="0 0 21 22.05" fill="none" xmlns="http://www.w3.org/2000/svg"><path d="M18.9 11.338H10.355V2.892a0.19 0.19 0 0 0 -0.19 -0.189H9.545a9.602 9.602 0 0 0 -3.654 0.714 9.516 9.516 0 0 0 -3.094 2.049A9.39 9.39 0 0 0 0.752 8.464 9.29 9.29 0 0 0 0 12.14a9.31 9.31 0 0 0 0.723 3.612 9.395 9.395 0 0 0 2.071 3.061 9.581 9.581 0 0 0 6.752 2.766 9.603 9.603 0 0 0 3.653 -0.715 9.517 9.517 0 0 0 3.095 -2.047 9.391 9.391 0 0 0 2.044 -3 9.291 9.291 0 0 0 0.752 -3.675v-0.614a0.19 0.19 0 0 0 -0.191 -0.189Zm-3.778 6.366a7.92 7.92 0 0 1 -2.579 1.688c-0.964 0.389 -1.995 0.587 -3.037 0.582a7.917 7.917 0 0 1 -5.565 -2.294 7.739 7.739 0 0 1 -2.319 -5.54 7.739 7.739 0 0 1 2.321 -5.54A7.891 7.891 0 0 1 8.733 4.347v8.595h8.694a7.735 7.735 0 0 1 -2.306 4.762Zm5.877 -7.678 -0.062 -0.666a9.342 9.342 0 0 0 -2.749 -5.771A9.576 9.576 0 0 0 12.338 0.876l-0.675 -0.061a0.189 0.189 0 0 0 -0.208 0.187v9.062c0 0.105 0.086 0.189 0.19 0.189l9.163 -0.023A0.189 0.189 0 0 0 21 10.028ZM13.072 8.652V2.599a7.956 7.956 0 0 1 3.971 2.119 7.765 7.765 0 0 1 2.148 3.919l-6.118 0.017Z" fill="#0063F5"/></svg>