<svg width="21" height="23.211" viewBox="0 0 21 23.211" fill="none" xmlns="http://www.w3.org/2000/svg"><path d="M20.064 18.694a10.438 10.438 0 0 0 -5.557 -5.494c-0.011 -0.007 -0.022 -0.009 -0.033 -0.014a6.772 6.772 0 0 0 2.855 -5.519c0 -3.762 -3.083 -6.811 -6.886 -6.811 -3.805 0 -6.888 3.048 -6.888 6.811A6.781 6.781 0 0 0 6.411 13.188l-0.033 0.014a10.35 10.35 0 0 0 -3.319 2.213 10.309 10.309 0 0 0 -2.238 3.283 10.109 10.109 0 0 0 -0.818 3.791 0.217 0.217 0 0 0 0.062 0.159 0.222 0.222 0 0 0 0.159 0.066H1.89a0.221 0.221 0 0 0 0.221 -0.214 8.142 8.142 0 0 1 2.439 -5.61 8.324 8.324 0 0 1 5.892 -2.413c2.227 0 4.318 0.857 5.893 2.413a8.142 8.142 0 0 1 2.438 5.61c0.003 0.122 0.099 0.214 0.222 0.214h1.667a0.224 0.224 0 0 0 0.207 -0.14 0.217 0.217 0 0 0 0.015 -0.085 10.132 10.132 0 0 0 -0.82 -3.794ZM10.441 12.39a4.773 4.773 0 0 1 -3.377 -1.385 4.665 4.665 0 0 1 -1.399 -3.338c0 -1.26 0.497 -2.447 1.399 -3.339a4.773 4.773 0 0 1 3.377 -1.385c1.275 0 2.475 0.492 3.378 1.385a4.665 4.665 0 0 1 1.399 3.338c0 1.26 -0.497 2.447 -1.399 3.339a4.773 4.773 0 0 1 -3.378 1.385Z" fill="#0063F5"/></svg>