<svg width="102" height="104" viewBox="0 0 102 104" fill="none" xmlns="http://www.w3.org/2000/svg"><path d="M2.474 51.14H4.95v-2.474a2.474 2.474 0 0 1 4.95 0v2.475h2.474a2.475 2.475 0 1 1 0 4.949H9.898v2.474a2.474 2.474 0 1 1-4.949 0V56.09H2.474a2.475 2.475 0 0 1 0-4.95Z" fill="url(#a)"/><path d="M4.124 4.95h2.474V2.474a2.475 2.475 0 0 1 4.95 0v2.474h2.474a2.475 2.475 0 0 1 0 4.95h-2.475v2.474a2.474 2.474 0 1 1-4.949 0V9.898H4.124a2.475 2.475 0 0 1 0-4.949Z" fill="url(#b)"/><path d="M56.914 21.446h2.475v-2.474a2.475 2.475 0 0 1 4.949 0v2.474h2.475a2.474 2.474 0 1 1 0 4.95h-2.475v2.474a2.475 2.475 0 0 1-4.949 0v-2.475h-2.475a2.474 2.474 0 1 1 0-4.949Z" fill="url(#c)"/><path d="M34.644 23.509a9.486 9.486 0 1 1 0-18.972 9.486 9.486 0 0 1 0 18.972Z" fill="url(#d)"/><path d="M28.044 23.92h13.198a7.432 7.432 0 0 1 7.424 7.423v14.848a2.475 2.475 0 0 1-2.475 2.474H23.095a2.474 2.474 0 0 1-2.474-2.474V31.343a7.432 7.432 0 0 1 7.423-7.423Z" fill="url(#e)"/><path d="M26.32 9.345c1.096-2.193 3.43-4.808 8.324-4.808h13.188a1.24 1.24 0 0 1 1.247 1.226c.007 5.785-5.559 6.531-5.795 6.61a1.24 1.24 0 0 1-.392.064l-12.372-.064-1.65 7.774a.825.825 0 0 1-1.498.478c-1.031-1.447-2.214-3.759-2.214-6.602a11.53 11.53 0 0 1 1.162-4.678Z" fill="url(#f)"/><path d="M32.169 68.462a4.95 4.95 0 0 1 4.949-4.949h18.147V52.172c0-3.086 0-9.237 8.094-10.022a1.65 1.65 0 0 1 1.804 1.644v11.21c0 .305.085.605.245.865l4.704 7.644h-.206l10.104 6.6 1.65 13.197-1.65 13.197a6.598 6.598 0 0 1-6.599 6.599H40.417a4.95 4.95 0 0 1 0-9.898h-1.65a4.95 4.95 0 0 1 0-9.898h-1.649a4.949 4.949 0 0 1 0-9.899 4.95 4.95 0 0 1-4.949-4.949Z" fill="url(#g)"/><path d="M82.485 63.514H98.98a2.475 2.475 0 0 1 2.475 2.474v34.644a2.475 2.475 0 0 1-2.475 2.474H82.486a2.474 2.474 0 0 1-2.475-2.474V65.988a2.475 2.475 0 0 1 2.475-2.474Z" fill="url(#h)"/><path d="M90.733 99.187a2.475 2.475 0 1 1 0-4.949 2.475 2.475 0 0 1 0 4.95Z" fill="#BFE8E5"/><defs><linearGradient id="a" x1="14.847" y1="53.615" x2="0" y2="53.615" gradientUnits="userSpaceOnUse"><stop offset=".011" stop-color="#FAD46A"/><stop offset="1" stop-color="#FCE6AA"/></linearGradient><linearGradient id="b" x1="-6219.33" y1="593.888" x2="-7288.33" y2="593.888" gradientUnits="userSpaceOnUse"><stop offset=".011" stop-color="#FAD46A"/><stop offset="1" stop-color="#FCE6AA"/></linearGradient><linearGradient id="c" x1="-2365.66" y1="1798.16" x2="-3434.65" y2="1798.16" gradientUnits="userSpaceOnUse"><stop offset=".011" stop-color="#FAD46A"/><stop offset="1" stop-color="#FCE6AA"/></linearGradient><linearGradient id="d" x1="41.348" y1="20.727" x2="27.939" y2="7.318" gradientUnits="userSpaceOnUse"><stop offset=".004" stop-color="#F1CCCD"/><stop offset="1" stop-color="#FAEEEE"/></linearGradient><linearGradient id="e" x1="46.39" y1="49.491" x2="22.896" y2="25.998" gradientUnits="userSpaceOnUse"><stop offset=".015" stop-color="#CACAD5"/><stop offset="1" stop-color="#DCDCE3"/></linearGradient><linearGradient id="f" x1="41.48" y1="16.207" x2="30.137" y2="4.864" gradientUnits="userSpaceOnUse"><stop offset=".011" stop-color="#606082"/><stop offset="1" stop-color="#83839E"/></linearGradient><linearGradient id="g" x1="-5714.74" y1="29937.1" x2="-17384.5" y2="20463.4" gradientUnits="userSpaceOnUse"><stop offset=".004" stop-color="#F1CCCD"/><stop offset="1" stop-color="#FAEEEE"/></linearGradient><linearGradient id="h" x1="105.268" y1="97.845" x2="76.198" y2="68.775" gradientUnits="userSpaceOnUse"><stop offset=".011" stop-color="#60C6BE"/><stop offset="1" stop-color="#80D1CB"/></linearGradient></defs></svg>