<svg width="100" height="100" viewBox="0 0 128 128" fill="#6C757D" class="icon" xmlns="http://www.w3.org/2000/svg"><path d="M75.088 8a4 4 0 0 1 3.808 2.776l4.4 13.672c1.848 0.904 3.616 1.92 5.304 3.064l14.048 -3.024a4 4 0 0 1 4.304 1.92L118.04 45.6a4 4 0 0 1 -0.504 4.688l-9.64 10.64a44.625 44.625 0 0 1 0 6.128l9.64 10.656a4 4 0 0 1 0.504 4.688l-11.088 19.2a4 4 0 0 1 -4.304 1.912L88.6 100.488c-1.68 1.136 -3.456 2.16 -5.296 3.064l-4.408 13.672A4 4 0 0 1 75.088 120H52.912a4 4 0 0 1 -3.808 -2.776L44.712 103.56a44 44 0 0 1 -5.32 -3.08l-14.04 3.032a4 4 0 0 1 -4.304 -1.92L9.96 82.4a4 4 0 0 1 0.504 -4.688l9.64 -10.656a44.625 44.625 0 0 1 0 -6.112l-9.64 -10.656A4 4 0 0 1 9.96 45.6l11.088 -19.2a4 4 0 0 1 4.304 -1.912l14.04 3.032c1.696 -1.144 3.472 -2.176 5.32 -3.08l4.4 -13.664A4 4 0 0 1 52.904 8H75.08zm-2.928 8H55.84l-4.544 14.136 -3.064 1.496a36.75 36.75 0 0 0 -4.352 2.512l-2.832 1.92 -14.528 -3.136 -8.16 14.144 9.96 11.024 -0.24 3.392a36.625 36.625 0 0 0 0 5.024l0.24 3.392 -9.976 11.024 8.168 14.144 14.528 -3.128 2.832 1.912a36.75 36.75 0 0 0 4.352 2.512l3.064 1.496L55.84 112h16.336l4.56 -14.144 3.056 -1.488a36 36 0 0 0 4.344 -2.512l2.824 -1.912 14.536 3.128 8.16 -14.144 -9.968 -11.024 0.24 -3.392a36.625 36.625 0 0 0 0 -5.032l-0.24 -3.392 9.976 -11.016 -8.168 -14.144 -14.536 3.12 -2.824 -1.904a36 36 0 0 0 -4.344 -2.512l-3.056 -1.488L72.168 16zM64 40a24 24 0 1 1 0 48 24 24 0 0 1 0 -48m0 8a16 16 0 1 0 0 32 16 16 0 0 0 0 -32"/></svg>