<svg width="100" height="100" fill="#262626" viewBox="0 0 100 100" xmlns="http://www.w3.org/2000/svg">
  <path d="M93.568 21.75A3.125 3.125 0 0 0 91 18.871C74.105 15.84 67.053 13.648 51.287 6.527a3.13 3.13 0 0 0-2.574 0C32.947 13.648 25.895 15.84 9 18.871a3.125 3.125 0 0 0-2.568 2.879c-.752 11.936.852 23.057 4.771 33.055a68.3 68.3 0 0 0 13.992 21.974c10.443 11.08 21.531 15.893 23.646 16.744a3.13 3.13 0 0 0 2.344 0c2.115-.852 13.203-5.664 23.646-16.744a68.3 68.3 0 0 0 13.965-21.975c3.92-9.998 5.523-21.119 4.771-33.055m-25.586 14.67-21.641 25a3.13 3.13 0 0 1-2.229 1.08h-.129a3.13 3.13 0 0 1-2.188-.893l-9.609-9.414a3.125 3.125 0 1 1 4.375-4.465l7.227 7.088L63.26 32.329a3.125 3.125 0 0 1 4.727 4.09Z"/>
</svg>
