<svg width="84" height="84" viewBox="0 0 84 84" fill="none" xmlns="http://www.w3.org/2000/svg"><path d="M43.076 10.513c-.604.774-1.076 1.3-1.076 1.3s-.472-.526-1.09-1.3c-.813-1.024-1.89-2.507-2.454-3.793-.25-.538-.394-1.05-.394-1.47A3.932 3.932 0 0 1 42 1.312a3.932 3.932 0 0 1 3.938 3.938c0 .42-.145.932-.394 1.47-.565 1.286-1.64 2.77-2.468 3.793Z" fill="#656D78"/><path d="M42 57.75v21c-6.208 0-12.036-1.654-17.05-4.58l10.488-18.166.013-.013A13.032 13.032 0 0 0 42 57.75Z" fill="#8CC152"/><path d="M40.91 10.514c.618.774 1.09 1.299 1.09 1.299v19.688a13.08 13.08 0 0 0-6.563 1.758l-10.5-18.178a33.733 33.733 0 0 1 15.974-4.567Z" fill="#FFCE54"/><path d="m35.45 55.992-.013.013L24.951 74.17a33.927 33.927 0 0 1-12.495-12.482l18.178-10.487h.013a13.04 13.04 0 0 0 4.804 4.79Z" fill="#ED5565"/><path d="m30.62 38.063.014.013a13.03 13.03 0 0 0-1.759 6.55v.013h-21v-.014c0-6.208 1.654-12.035 4.568-17.049h.013L30.62 38.063Z" fill="#8CC152"/><path d="M42 78.75c6.208 0 12.036-1.654 17.05-4.58a33.928 33.928 0 0 0 12.494-12.483 33.833 33.833 0 0 0 4.581-17.05v-.012c0-6.208-1.654-12.036-4.567-17.05A34.139 34.139 0 0 0 59.062 15.08a33.89 33.89 0 0 0-15.986-4.567c.827-1.024 1.903-2.507 2.468-3.793 19.36 1.798 34.519 18.073 34.519 37.905 0 21.026-17.037 38.062-38.063 38.062-21.026 0-38.063-17.036-38.063-38.062 0-19.832 15.16-36.107 34.52-37.905.565 1.285 1.64 2.77 2.454 3.793-5.802.184-11.248 1.811-15.974 4.567a34.05 34.05 0 0 0-12.495 12.495C9.53 32.59 7.876 38.417 7.876 44.625v.013a33.833 33.833 0 0 0 4.58 17.05 33.918 33.918 0 0 0 12.496 12.481c5.013 2.927 10.84 4.58 17.049 4.58Z" fill="#E6E9ED"/><path d="m24.937 15.08 10.5 18.178a13.11 13.11 0 0 0-4.803 4.817l-.014-.013-18.165-10.487h-.013A34.06 34.06 0 0 1 24.937 15.08Z" fill="#ED5565"/><path d="M76.125 44.639a33.832 33.832 0 0 1-4.58 17.049l-18.179-10.5a13.031 13.031 0 0 0 1.759-6.55h21Z" fill="#8CC152"/><path d="M71.558 27.576h-.014l-18.178 10.5a12.986 12.986 0 0 0-4.803-4.804l10.5-18.19a34.145 34.145 0 0 1 12.495 12.494Z" fill="#ED5565"/><path d="M7.888 44.639h20.987c0 2.388.643 4.633 1.772 6.562h-.013L12.456 61.688a33.833 33.833 0 0 1-4.581-17.05h.013Z" fill="#FFCE54"/><path d="m59.063 15.081-10.5 18.191A12.958 12.958 0 0 0 42 31.501V11.813s.472-.525 1.076-1.3a33.89 33.89 0 0 1 15.986 4.568Z" fill="#8CC152"/><path d="m53.366 51.188 18.178 10.5a33.918 33.918 0 0 1-12.494 12.48L48.563 55.991a13.175 13.175 0 0 0 4.803-4.803Z" fill="#ED5565"/><path d="M48.563 55.991 59.049 74.17C54.036 77.096 48.21 78.75 42 78.75v-21a13.08 13.08 0 0 0 6.563-1.759Zm27.562-11.365v.013h-21v-.014c0-2.388-.643-4.62-1.759-6.549l18.178-10.5h.014c2.913 5.014 4.567 10.841 4.567 17.05Z" fill="#FFCE54"/><path d="M55.125 44.625v.013c0 2.389-.643 4.621-1.759 6.55a13.181 13.181 0 0 1-4.803 4.803A13.08 13.08 0 0 1 42 57.75a13.03 13.03 0 0 1-6.55-1.759 13.048 13.048 0 0 1-4.803-4.79 12.97 12.97 0 0 1-1.772-6.563v-.013c0-2.389.643-4.62 1.759-6.55a13.118 13.118 0 0 1 4.803-4.816A13.08 13.08 0 0 1 42 31.5c2.389 0 4.633.643 6.563 1.772a12.986 12.986 0 0 1 4.803 4.804 13.03 13.03 0 0 1 1.759 6.549Zm17.341-6.839a1.317 1.317 0 0 1-1.32-1.312c0-.726.58-1.313 1.305-1.313h.015a1.312 1.312 0 1 1 0 2.625ZM11.611 54.09a1.317 1.317 0 0 1-1.319-1.313c0-.726.58-1.312 1.305-1.312h.014a1.312 1.312 0 1 1 0 2.625Zm52.703-30.427c-.726 0-1.32-.587-1.32-1.312 0-.726.58-1.313 1.305-1.313h.015a1.312 1.312 0 1 1 0 2.625ZM19.765 68.212c-.726 0-1.32-.587-1.32-1.313 0-.725.58-1.312 1.305-1.312h.015a1.312 1.312 0 1 1 0 2.625Zm30.428-52.703c-.726 0-1.32-.587-1.32-1.313s.58-1.312 1.305-1.312h.015a1.312 1.312 0 1 1 0 2.625ZM33.885 76.364c-.726 0-1.32-.586-1.32-1.312 0-.726.58-1.313 1.305-1.313h.015a1.312 1.312 0 1 1 0 2.625Zm.001-60.855c-.726 0-1.32-.587-1.32-1.313s.581-1.312 1.305-1.312h.015a1.312 1.312 0 1 1 0 2.625Zm16.305 60.855a1.317 1.317 0 0 1-1.319-1.312c0-.726.58-1.313 1.305-1.313h.014a1.312 1.312 0 1 1 0 2.625ZM19.765 23.661c-.726 0-1.32-.587-1.32-1.312 0-.726.58-1.313 1.305-1.313h.015a1.312 1.312 0 1 1 0 2.625Zm44.549 44.551c-.726 0-1.32-.587-1.32-1.313 0-.725.58-1.312 1.305-1.312h.015a1.312 1.312 0 1 1 0 2.625ZM11.611 37.783a1.317 1.317 0 0 1-1.319-1.312c0-.726.58-1.313 1.305-1.313h.014a1.312 1.312 0 1 1 0 2.625ZM72.467 54.09c-.726 0-1.32-.587-1.32-1.313s.581-1.312 1.306-1.312h.014a1.312 1.312 0 1 1 0 2.625Z" fill="#E6E9ED"/><path d="M48.559 43.313H35.438a1.311 1.311 0 1 1 0-2.626h13.12a1.311 1.311 0 1 1 0 2.626Zm0 3.937H35.438a1.311 1.311 0 1 1 0-2.625h13.12a1.311 1.311 0 1 1 0 2.625Zm-3.934 3.938h-5.254a1.311 1.311 0 1 1 0-2.626h5.254a1.312 1.312 0 1 1 0 2.626Z" fill="#CCD1D9"/></svg>